<svg xmlns="http://www.w3.org/2000/svg" viewBox="0 0 120 120" width="120" height="120" role="img" aria-label="JP sound &amp; light — dzīvā zīme (Ritms)">
<title>JP sound &amp; light — dzīvā zīme (Ritms)</title>
<style>.imp{stroke-dasharray:14 86;animation:imp 1.8s linear infinite}@keyframes imp{from{stroke-dashoffset:100}to{stroke-dashoffset:0}}@media (prefers-reduced-motion:reduce){.imp{display:none}}</style><defs><linearGradient id="gd" x1="0" x2="1" y1="0" y2="0"><stop offset="0" stop-color="#FF3DA5"/><stop offset="1" stop-color="#FFC21A"/></linearGradient></defs><g transform="rotate(-8 60 64)"><path d="M24 60 A36 36 0 0 1 96 60" fill="none" stroke="#FFFFFF" stroke-width="8" stroke-linecap="round"/><rect x="14" y="54" width="18" height="38" rx="9" fill="#FFFFFF"/><rect x="88" y="54" width="18" height="38" rx="9" fill="#FFFFFF"/></g><path class="vilnis" d="M2 80 H30 L40 80 L46 58 L54 100 L62 66 L68 88 L74 76 L80 80 H118" fill="none" stroke="url(#gd)" stroke-width="5.5" stroke-linecap="round" stroke-linejoin="round"/><path class="imp" pathLength="100" d="M2 80 H30 L40 80 L46 58 L54 100 L62 66 L68 88 L74 76 L80 80 H118" fill="none" stroke="#FFFFFF" stroke-width="5.5" stroke-linecap="round" stroke-linejoin="round"/>
</svg>
